<svg version="1.1" id="Ñëîé_1" xmlns="http://www.w3.org/2000/svg" x="0" y="0" viewBox="0 0 1000 1000" xml:space="preserve"><style>.st2{fill:#00a8ff}</style><path class="st2" d="M377.3 570.9c-21 20.7-24.2 66.6-24.3 68.5l-.4 5.7 5.7-.3 68.9-23.4c19.6-19.3 21.9-40.3 6.3-56.1-15.6-15.8-36.6-13.7-56.2 5.6z"/><path class="st2" d="m742.8 265.4-.6-5.6-5.6-.7c-1.3-.2-31.6-3.6-74.7 5.3-39.7 8.2-98.2 29-151.3 81.4-18 17.7-34.5 37.2-49.4 57l-57.2 9.7c-15.7 2.7-29 12.9-35.5 27.4l-31.6 69.9c-1.5 3.4-1.1 7.4 1.2 10.4.3.3.5.6.8.9 2.3 2.3 5.6 3.4 8.9 2.9l49.6-8.4 84.4 85.6-9.1 49.4c-.6 3.3.4 6.6 2.8 9 .3.3.6.6.9.8 3 2.3 6.9 2.9 10.4 1.4l70.2-30.6c14.6-6.4 25-19.5 27.9-35.2l10.5-57.1c20-14.7 39.7-30.9 57.6-48.6 53.2-52.4 74.7-110.6 83.5-150.2 9.5-43.1 6.4-73.4 6.3-74.7zM640.2 425.8c-18.3 18-47.7 17.8-65.7-.5s-17.8-47.7.5-65.7 47.7-17.8 65.7.5c17.9 18.2 17.7 47.7-.5 65.7zM297.2 587.1l-71.1 70.2c-5.1 5-5.2 13.3-.1 18.4 5 5.1 13.3 5.2 18.4.1l71.1-70.2c5.1-5 5.2-13.3.1-18.4-5-5.1-13.2-5.1-18.4-.1zM282.1 699.6l-91.8 90.6c-5.1 5-5.2 13.3-.1 18.4s13.3 5.2 18.4.1l91.8-90.6c5.1-5 5.2-13.3.1-18.4s-13.3-5.2-18.4-.1zM376.7 695.4l-50 49.3c-5.1 5-5.2 13.3-.1 18.4 5 5.1 13.3 5.2 18.4.1l50-49.3c5.1-5 5.2-13.3.1-18.4-5.1-5-13.3-5.1-18.4-.1z"/></svg>